<svg id="Capa_1" data-name="Capa 1" xmlns="http://www.w3.org/2000/svg" viewBox="0 0 400 400"><defs></defs><g id="Biotecnología"><path fill="#0055b8" d="M62.64,356.22h3.27c2,0,3.25,1,3.25,2.63v0A2.4,2.4,0,0,1,68,361.06a2.58,2.58,0,0,1,1.76,2.5v0c0,1.71-1.31,2.85-3.4,2.85h-3.7Zm3.65,4.56A1.74,1.74,0,0,0,68.24,359v-.06c0-1.12-.82-1.85-2.27-1.85H63.52v3.72Zm0,4.84c1.58,0,2.51-.79,2.51-2v0c0-1.17-.89-1.93-2.31-1.93h-3v4Z"></path><path fill="#0055b8" d="M71.77,356.9a.58.58,0,0,1,.6-.6.59.59,0,0,1,.59.6.58.58,0,0,1-.59.58A.57.57,0,0,1,71.77,356.9Zm.19,2h.82v7.6H72Z"></path><path fill="#0055b8" d="M75,362.71v-.11a3.65,3.65,0,0,1,3.76-3.83h.06a3.64,3.64,0,0,1,3.76,3.83v.11a3.64,3.64,0,0,1-3.76,3.83h-.06A3.65,3.65,0,0,1,75,362.71Zm3.8,3a2.87,2.87,0,0,0,2.93-3v-.09a2.87,2.87,0,0,0-2.93-3h0a2.86,2.86,0,0,0-2.91,3v.09a2.86,2.86,0,0,0,2.91,3Z"></path><path fill="#0055b8" d="M84.9,364.51v-4.88H83.83v-.57a5.52,5.52,0,0,1,1.07-.19V357.1l.82-.12v1.87h2.67v.78H85.72v4.75c0,.95.49,1.33,1.37,1.33a5.61,5.61,0,0,0,1.46-.19v.74a4.82,4.82,0,0,1-1.56.24C85.7,366.5,84.9,365.91,84.9,364.51Z"></path><path fill="#0055b8" d="M89.73,362.84v-.2a3.66,3.66,0,0,1,3.72-3.87h0a3.34,3.34,0,0,1,3.47,3.55V363H90.6v0a2.79,2.79,0,0,0,2.91,2.69,3.13,3.13,0,0,0,2.57-1.22l.66.43a4,4,0,0,1-3.29,1.61A3.58,3.58,0,0,1,89.73,362.84Zm6.38-.61v0a2.59,2.59,0,0,0-2.71-2.6,2.72,2.72,0,0,0-2.77,2.64Z"></path><path fill="#0055b8" d="M98.65,362.73v-.15a3.62,3.62,0,0,1,3.7-3.81h.06a3.51,3.51,0,0,1,3.17,1.88l-.69.38a2.73,2.73,0,0,0-2.51-1.47h0a2.77,2.77,0,0,0-2.84,3v.15a2.87,2.87,0,0,0,2.94,3h0a2.77,2.77,0,0,0,2.47-1.43l.67.41a3.54,3.54,0,0,1-3.17,1.81h-.07A3.63,3.63,0,0,1,98.65,362.73Z"></path><path fill="#0055b8" d="M107.58,358.85h.63a6.16,6.16,0,0,1,.17,1.32,3.4,3.4,0,0,1,2.88-1.42h0a2.52,2.52,0,0,1,2.79,2.84v4.86h-.82v-4.73a1.89,1.89,0,0,0-2.09-2.15h-.06a2.49,2.49,0,0,0-2.73,2.53v4.35h-.82Z"></path><path fill="#0055b8" d="M116.16,362.71v-.11a3.64,3.64,0,0,1,3.75-3.83H120a3.64,3.64,0,0,1,3.76,3.83v.11a3.64,3.64,0,0,1-3.76,3.83h-.06A3.64,3.64,0,0,1,116.16,362.71Zm3.8,3a2.86,2.86,0,0,0,2.92-3v-.09a2.86,2.86,0,0,0-2.92-3h0a2.86,2.86,0,0,0-2.91,3v.09a2.86,2.86,0,0,0,2.91,3Z"></path><path fill="#0055b8" d="M125.93,355.93h.82v10.52h-.82Z"></path><path fill="#0055b8" d="M128.94,362.71v-.11a3.65,3.65,0,0,1,3.76-3.83h.06a3.63,3.63,0,0,1,3.75,3.83v.11a3.63,3.63,0,0,1-3.75,3.83h-.06A3.65,3.65,0,0,1,128.94,362.71Zm3.8,3a2.87,2.87,0,0,0,2.93-3v-.09a2.87,2.87,0,0,0-2.93-3h0a2.85,2.85,0,0,0-2.9,3v.09a2.85,2.85,0,0,0,2.9,3Z"></path><path fill="#0055b8" d="M138.15,361.41c0-1.53,1.33-2.64,3.16-2.64h.06a3.59,3.59,0,0,1,2,.55,5.08,5.08,0,0,1,.66-1.2h.81l-.9,1.68a2.45,2.45,0,0,1,.6,1.61v.12c0,1.53-1.35,2.63-3.17,2.63h-.06a3.46,3.46,0,0,1-1-.13v1.17a6,6,0,0,1,1.08-.09h.09c2,0,3.37.82,3.37,2.12v.09c0,1.28-1.41,2.1-3.37,2.1h-.09c-2,0-3.38-.8-3.38-2.09v-.1a2,2,0,0,1,1.51-1.83v-1.66a2.47,2.47,0,0,1-1.39-2.21Zm.73,5.89c0,.85,1,1.36,2.54,1.36h.06c1.52,0,2.55-.52,2.55-1.36v-.06c0-.84-1-1.37-2.55-1.37h-.06c-1.52,0-2.54.53-2.54,1.37Zm.12-5.79a2.06,2.06,0,0,0,2.31,1.88h.07a2.06,2.06,0,0,0,2.31-1.88v-.08a2.09,2.09,0,0,0-2.34-1.89h0a2.07,2.07,0,0,0-2.32,1.89Z"></path><path fill="#0055b8" d="M146.79,358.85h.82v7.6h-.82Zm0-1,.82-1.93h.89l-1,1.93Z"></path><path fill="#0055b8" d="M149.7,364.26v0c0-1.59,1.55-2.42,4.56-2.42h1v-.65c0-1-.78-1.59-2-1.59h0a5,5,0,0,0-2.66.83l-.4-.67a5.71,5.71,0,0,1,3.09-1h0c1.71,0,2.79.92,2.79,2.38v4a3.94,3.94,0,0,0,.27,1.33h-.84a4.22,4.22,0,0,1-.23-1,4.23,4.23,0,0,1-2.83,1.11A2.4,2.4,0,0,1,149.7,364.26Zm5.51.25v-1.94h-.76c-2.68,0-3.92.54-3.92,1.68v0c0,.86.77,1.46,1.87,1.46A3.85,3.85,0,0,0,155.21,364.51Z"></path><path fill="#0055b8" d="M162.25,362.84v-.2a3.66,3.66,0,0,1,3.71-3.87h0a3.34,3.34,0,0,1,3.46,3.55V363h-6.33v0a2.79,2.79,0,0,0,2.91,2.69,3.12,3.12,0,0,0,2.57-1.22l.66.43a4,4,0,0,1-3.29,1.61A3.57,3.57,0,0,1,162.25,362.84Zm6.37-.61v0a2.58,2.58,0,0,0-2.7-2.6,2.72,2.72,0,0,0-2.78,2.64Z"></path><path fill="#0055b8" d="M171.65,358.85h.62a5.52,5.52,0,0,1,.18,1.32,3.4,3.4,0,0,1,2.88-1.42h0a2.52,2.52,0,0,1,2.79,2.84v4.86h-.81v-4.73a1.89,1.89,0,0,0-2.09-2.15h-.06a2.5,2.5,0,0,0-2.74,2.53v4.35h-.81Z"></path><path fill="#0055b8" d="M184.75,355.93h.82v10.52h-.82Z"></path><path fill="#0055b8" d="M188.06,356.9a.59.59,0,1,1,1.18,0,.59.59,0,0,1-1.18,0Zm.19,2h.82v7.6h-.82Z"></path><path fill="#0055b8" d="M191.74,358.85h.63a6.59,6.59,0,0,1,.16,1.17,2.92,2.92,0,0,1,2.46-1.27h0a2.13,2.13,0,0,1,2.28,1.54,2.93,2.93,0,0,1,2.64-1.54h0c1.61,0,2.45,1,2.45,2.74v5h-.82V361.6c0-1.31-.59-2-1.79-2h0a2.19,2.19,0,0,0-2.29,2.38v4.5h-.82V361.6c0-1.31-.58-2-1.8-2h0a2.17,2.17,0,0,0-2.26,2.38v4.5h-.82Z"></path><path fill="#0055b8" d="M204.94,358.85h.63a10,10,0,0,1,.19,1.48,3.43,3.43,0,0,1,3-1.56h.06a3.61,3.61,0,0,1,3.68,3.83v.11a3.61,3.61,0,0,1-3.68,3.83h-.06a3.43,3.43,0,0,1-3-1.56v4.4h-.82Zm3.77,6.87a2.8,2.8,0,0,0,2.89-3v-.09a2.8,2.8,0,0,0-2.89-3h-.08a2.8,2.8,0,0,0-2.87,3v.09a2.8,2.8,0,0,0,2.87,3Z"></path><path fill="#0055b8" d="M214.48,356.9a.59.59,0,1,1,1.18,0,.59.59,0,0,1-1.18,0Zm.19,2h.82v7.6h-.82Z"></path><path fill="#0055b8" d="M217.68,362.84v-.2a3.66,3.66,0,0,1,3.71-3.87h0a3.34,3.34,0,0,1,3.46,3.55V363h-6.33v0a2.79,2.79,0,0,0,2.91,2.69A3.12,3.12,0,0,0,224,364.5l.66.43a4,4,0,0,1-3.29,1.61A3.57,3.57,0,0,1,217.68,362.84Zm6.37-.61v0a2.58,2.58,0,0,0-2.7-2.6,2.72,2.72,0,0,0-2.78,2.64Z"></path><path fill="#0055b8" d="M226.19,365.58l5-5.85v-.1h-4.67v-.78h5.71v.88l-5,5.86v.09h5.25v.77h-6.27Z"></path><path fill="#0055b8" d="M233.77,364.26v0c0-1.59,1.55-2.42,4.56-2.42h.95v-.65c0-1-.77-1.59-2-1.59h0a5,5,0,0,0-2.66.83l-.41-.67a5.74,5.74,0,0,1,3.1-1h0c1.71,0,2.79.92,2.79,2.38v4a4.19,4.19,0,0,0,.26,1.33h-.83a4.22,4.22,0,0,1-.23-1,4.26,4.26,0,0,1-2.84,1.11A2.4,2.4,0,0,1,233.77,364.26Zm5.51.25v-1.94h-.76c-2.67,0-3.92.54-3.92,1.68v0c0,.86.78,1.46,1.87,1.46A3.85,3.85,0,0,0,239.28,364.51Z"></path><path fill="#0055b8" d="M246.37,369.06v-.78a2.37,2.37,0,0,0,1,.25c.81,0,1.36-.61,1.83-1.72l-3.47-8h.94l2.89,6.74h.11l2.54-6.74h.89l-3,8c-.57,1.54-1.29,2.46-2.58,2.46A2.41,2.41,0,0,1,246.37,369.06Z"></path><path fill="#0055b8" d="M258.19,362.71v-.11a3.62,3.62,0,0,1,3.68-3.83h.05a3.43,3.43,0,0,1,3,1.58v-4.42h.82v10.52h-.65a8.65,8.65,0,0,1-.17-1.4V365a3.43,3.43,0,0,1-3,1.58h-.05A3.62,3.62,0,0,1,258.19,362.71Zm3.82,3a2.8,2.8,0,0,0,2.89-3v-.09a2.8,2.8,0,0,0-2.89-3h-.08a2.8,2.8,0,0,0-2.88,3v.09a2.8,2.8,0,0,0,2.88,3Z"></path><path fill="#0055b8" d="M267.92,362.84v-.2a3.66,3.66,0,0,1,3.72-3.87h0a3.34,3.34,0,0,1,3.46,3.55V363h-6.32v0a2.78,2.78,0,0,0,2.9,2.69,3.14,3.14,0,0,0,2.58-1.22l.65.43a4,4,0,0,1-3.28,1.61A3.58,3.58,0,0,1,267.92,362.84Zm6.38-.61v0a2.59,2.59,0,0,0-2.71-2.6,2.72,2.72,0,0,0-2.77,2.64Z"></path><path fill="#0055b8" d="M276.56,365.42l.48-.62a4.53,4.53,0,0,0,2.79,1c1.26,0,2.05-.54,2.05-1.35,0-1-1.2-1.25-2.44-1.55-1.42-.32-2.59-.73-2.59-2s1.1-2.09,2.69-2.09a5,5,0,0,1,2.87.91l-.41.67a4.59,4.59,0,0,0-2.5-.77c-1.11,0-1.8.49-1.8,1.21s.54,1,2.16,1.37,2.88.79,2.88,2.2-1.2,2.22-2.93,2.22A5.05,5.05,0,0,1,276.56,365.42Z"></path><path fill="#0055b8" d="M284.5,356.9a.58.58,0,0,1,.6-.6.59.59,0,0,1,.58.6.57.57,0,0,1-.58.58A.57.57,0,0,1,284.5,356.9Zm.19,2h.81v7.6h-.81Z"></path><path fill="#0055b8" d="M288.18,358.85h.63a6.16,6.16,0,0,1,.17,1.32,3.4,3.4,0,0,1,2.88-1.42h.05a2.52,2.52,0,0,1,2.79,2.84v4.86h-.82v-4.73a1.89,1.89,0,0,0-2.09-2.15h-.06A2.49,2.49,0,0,0,289,362.1v4.35h-.82Z"></path><path fill="#0055b8" d="M297.18,359.63h-.91v-.56a5.05,5.05,0,0,1,.91-.19v-.64a2.06,2.06,0,0,1,2.15-2.29,3.2,3.2,0,0,1,1.39.29V357a2.9,2.9,0,0,0-1.26-.26c-.93,0-1.46.49-1.46,1.54v.57h2.56v.78H298v6.82h-.82Z"></path><path fill="#0055b8" d="M301.32,362.84v-.2a3.66,3.66,0,0,1,3.71-3.87h0a3.34,3.34,0,0,1,3.47,3.55V363h-6.33v0a2.79,2.79,0,0,0,2.91,2.69,3.13,3.13,0,0,0,2.57-1.22l.66.43a4,4,0,0,1-3.29,1.61A3.57,3.57,0,0,1,301.32,362.84Zm6.37-.61v0a2.59,2.59,0,0,0-2.7-2.6,2.72,2.72,0,0,0-2.78,2.64Z"></path><path fill="#0055b8" d="M310.23,362.73v-.15a3.63,3.63,0,0,1,3.7-3.81H314a3.51,3.51,0,0,1,3.17,1.88l-.69.38a2.72,2.72,0,0,0-2.51-1.47h0a2.77,2.77,0,0,0-2.84,3v.15a2.88,2.88,0,0,0,2.94,3h0a2.76,2.76,0,0,0,2.47-1.43l.67.41a3.54,3.54,0,0,1-3.17,1.81H314A3.64,3.64,0,0,1,310.23,362.73Z"></path><path fill="#0055b8" d="M318.63,362.73v-.15a3.63,3.63,0,0,1,3.7-3.81h.06a3.5,3.5,0,0,1,3.17,1.88l-.68.38a2.75,2.75,0,0,0-2.52-1.47h0a2.77,2.77,0,0,0-2.83,3v.15a2.87,2.87,0,0,0,2.93,3h0a2.76,2.76,0,0,0,2.47-1.43l.68.41a3.54,3.54,0,0,1-3.18,1.81h-.07A3.64,3.64,0,0,1,318.63,362.73Z"></path><path fill="#0055b8" d="M327.37,356.9a.58.58,0,0,1,.6-.6.59.59,0,0,1,.59.6.58.58,0,0,1-.59.58A.57.57,0,0,1,327.37,356.9Zm.19,2h.82v7.6h-.82Z"></path><path fill="#0055b8" d="M330.57,362.71v-.11a3.65,3.65,0,0,1,3.76-3.83h.06a3.63,3.63,0,0,1,3.75,3.83v.11a3.63,3.63,0,0,1-3.75,3.83h-.06A3.65,3.65,0,0,1,330.57,362.71Zm3.8,3a2.87,2.87,0,0,0,2.93-3v-.09a2.87,2.87,0,0,0-2.93-3h0a2.85,2.85,0,0,0-2.9,3v.09a2.85,2.85,0,0,0,2.9,3Zm-.36-7.88.82-1.93h.89l-1,1.93Z"></path><path fill="#0055b8" d="M340.35,358.85H341a5.59,5.59,0,0,1,.17,1.32,3.4,3.4,0,0,1,2.88-1.42h.05a2.52,2.52,0,0,1,2.79,2.84v4.86h-.82v-4.73a1.89,1.89,0,0,0-2.09-2.15h-.06a2.49,2.49,0,0,0-2.73,2.53v4.35h-.82Z"></path></g><path id="_" data-name="®" fill="#41BE43" d="M346.8,305.75a4.19,4.19,0,0,1,4.27-4.26,4.26,4.26,0,1,1-4.27,4.26Zm8.05,0a3.79,3.79,0,1,0-3.78,3.81A3.68,3.68,0,0,0,354.85,305.74Zm-5.31-2.15h1.6a1.31,1.31,0,0,1,1.48,1.31,1.17,1.17,0,0,1-.9,1.19l1.29,1.72h-.54l-1.2-1.63H350v1.63h-.42Zm1.57,2.18c.65,0,1-.33,1-.87s-.4-.89-1.06-.89H350v1.76Z"></path><g id="Neugreen"><path fill="#0055b8" d="M62.64,296.26H73.15l16.07,28h.42v-28h9.13v42.28H89.34l-17.22-30H71.7v30H62.64Z"></path><path fill="#0055b8" d="M105.71,323.44v-1c0-9.18,7-15.88,16.31-15.88h.55c8.88,0,15.28,6.1,15.28,14.31v4.47H114.47c.55,4.11,3.75,6.71,8.4,6.71h.36a12.62,12.62,0,0,0,9-3.75l4.41,5.62c-3,3.08-8.58,5.32-13.53,5.32h-.78C112.54,339.21,105.71,332.81,105.71,323.44Zm23.62-3.62a6.79,6.79,0,0,0-7-6.71h-.19c-3.74,0-6.64,2.54-7.43,6.71Z"></path><path fill="#0055b8" d="M144,327.31V307.13h9v18.18c0,4.17,1.69,6.35,5.38,6.35h.12c4.35,0,7.19-3.2,7.19-8.16V307.13h9v31.41h-7.13a18.53,18.53,0,0,1-1-4.89,14.69,14.69,0,0,1-11.48,5.56h-.18C147.88,339.21,144,334.8,144,327.31Z"></path><path fill="#41BE43" d="M180.92,317.76c0-6.82,6.1-11.29,14.38-11.29h1.21a20.51,20.51,0,0,1,5.62.78,17.44,17.44,0,0,1,2-4.53h8l-4,8a9.69,9.69,0,0,1,2.84,7v.49c0,6.52-6.16,11.29-14.5,11.29h-.24a12.68,12.68,0,0,1-1.57-.12v3.14c.9,0,1.63-.06,2.59-.06H198c8.34,0,14.62,3.63,14.62,9.06v.67c0,5.44-6.35,9.06-14.92,9.06h-2.12c-8.52,0-14.86-3.62-14.86-9.06v-.85c0-3.5,2.78-6.52,6.89-8.09v-5.38c-4-1.93-6.65-5.43-6.65-9.66Zm8.7,24c0,1.81,2.48,3.2,6,3.2h1.88c3.68,0,6.28-1.45,6.28-3.2v-.55c0-1.81-2.6-3.26-6.28-3.26h-1.88c-3.56,0-6,1.45-6,3.26Zm.12-23c0,2.9,2.78,4.89,6,4.89h.79c3.2,0,6-2.17,6-4.89v-.79c0-2.9-2.84-4.95-6.1-4.95h-.67c-3.26,0-6,2-6,4.95Z"></path><path fill="#41BE43" d="M217.35,307.13h7.19a23.16,23.16,0,0,1,.91,4.53,13.33,13.33,0,0,1,10.45-4.53h.78v8.46a8.66,8.66,0,0,0-2.35-.42c-5.2,0-8,2.65-8,6.76v16.61h-9Z"></path><path fill="#41BE43" d="M240.06,323.44v-1c0-9.18,7-15.88,16.31-15.88h.55c8.88,0,15.28,6.1,15.28,14.31v4.47H248.82c.55,4.11,3.75,6.71,8.4,6.71h.36a12.62,12.62,0,0,0,9-3.75l4.41,5.62c-3,3.08-8.57,5.32-13.53,5.32h-.78C246.89,339.21,240.06,332.81,240.06,323.44Zm23.62-3.62a6.79,6.79,0,0,0-7-6.71h-.18c-3.75,0-6.65,2.54-7.43,6.71Z"></path><path fill="#41BE43" d="M277,323.44v-1c0-9.18,7-15.88,16.32-15.88h.54c8.88,0,15.28,6.1,15.28,14.31v4.47H285.79c.55,4.11,3.75,6.71,8.4,6.71h.36a12.66,12.66,0,0,0,9-3.75l4.4,5.62c-3,3.08-8.57,5.32-13.53,5.32h-.78C283.86,339.21,277,332.81,277,323.44Zm23.63-3.62a6.81,6.81,0,0,0-7-6.71h-.18c-3.75,0-6.65,2.54-7.43,6.71Z"></path><path fill="#41BE43" d="M315.7,307.13h7.13a17.72,17.72,0,0,1,1,4.95,15.43,15.43,0,0,1,11.72-5.61h.18c7.19,0,11.18,4.47,11.18,12.08v20h-9V320.48c0-4.29-1.75-6.46-5.62-6.46H332c-4.35,0-7.31,3.26-7.31,7.91v16.61h-9Z"></path></g><g id="Icono"><path fill="#0055b8" d="M334.44,78.61a39.56,39.56,0,0,0-8.25-14c-13.81-15-38.53-17.8-69.61-7.81-4.79,1.54-9.66,3.37-14.57,5.45,2.16,2.88,4.36,5.87,6.56,8.93q5.7-2.31,11.29-4.12c12.14-3.9,23.2-5.64,32.64-5.26,11.14.45,20,3.85,25.81,10.13a27.45,27.45,0,0,1,4.79,7.34,24.69,24.69,0,0,0-2.63,46.33q-.93,2.58-2,5.23c-11.27,27.55-32.95,57.06-61,83.11S198.29,259.29,170,268.36c-26.48,8.52-47.79,6.74-58.45-4.86s-10.72-33.07-.15-58.9c5.7-13.94,14.08-28.39,24.6-42.64a74.66,74.66,0,0,1-1.68-15.4c-14.33,17.82-25.61,36.24-32.85,53.95-12.4,30.31-11.62,55.27,2.2,70.3,7.81,8.51,19.13,13.09,33.11,13.65,10.72.44,23-1.5,36.49-5.83,29.71-9.54,62.16-29.72,91.39-56.81s51.84-58,63.69-86.94q1.53-3.75,2.79-7.38a24.66,24.66,0,0,0,3.26-48.89Zm9.94,24.84c0,.45-.06.89-.12,1.33l-.06.41c-.05.3-.11.6-.18.89s-.07.31-.11.46-.16.57-.25.85c-.05.13-.08.27-.13.4-.14.38-.29.75-.46,1.11-.07.16-.15.3-.23.45s-.22.44-.34.64a6.16,6.16,0,0,1-.33.55c-.1.16-.2.32-.31.47s-.27.39-.41.57a3.76,3.76,0,0,1-.25.31,14.18,14.18,0,0,1-1.95,2,.69.69,0,0,0-.13.11c-.26.21-.52.41-.79.6l-.06,0a14.19,14.19,0,0,1-14.7,1h0a13.89,13.89,0,0,1-2.46-1.61L321,114a13.79,13.79,0,0,1-1.91-1.91l-.19-.23c-.15-.19-.3-.39-.44-.59a3.51,3.51,0,0,1-.27-.4c-.13-.19-.26-.37-.37-.57s-.35-.61-.51-.93c-.08-.15-.15-.31-.22-.46s-.2-.45-.29-.69a3.8,3.8,0,0,1-.18-.47c-.1-.28-.19-.56-.27-.85,0-.11-.07-.22-.1-.33-.1-.39-.19-.79-.26-1.2,0-.12,0-.24-.05-.36-.05-.32-.08-.64-.11-1l0-.39c0-.43,0-.87,0-1.31s.06-.9.12-1.34c0-.14.05-.27.07-.41,0-.3.1-.6.17-.89s.07-.31.11-.46.16-.57.25-.84.09-.28.14-.42c.14-.38.29-.76.46-1.12l.21-.41.36-.69.33-.53.32-.49.41-.57c.09-.12.19-.23.29-.35a14.25,14.25,0,0,1,2-2l.13-.1c.25-.21.51-.4.77-.59L322,91a14.14,14.14,0,0,1,14.86-.78A14.42,14.42,0,0,1,340,92.53l.11.11a14.5,14.5,0,0,1,1.68,2L342,95l.37.59.3.54.38.76c.11.25.21.49.31.74l.18.47c.09.26.17.53.25.79s.08.26.11.39c.1.39.19.79.26,1.19,0,.1,0,.21,0,.32,0,.33.09.66.11,1l0,.38c0,.43,0,.86,0,1.3Z"></path><path fill="#0055b8" d="M152.35,186.13c.53.77,1.08,1.52,1.64,2.26,4.95,6.21,15.55,15.92,20.56,18.33,1.45.69,4.18,2.34,8.1,4.08a68.84,68.84,0,0,0,27,5.52h.92c2-.07,4-.22,6.06-.47a71,71,0,0,0,40.7-19.91c5.77-5.64,12.1-12.9,15.57-20.38a69.76,69.76,0,0,0,6.44-29.21c0-37.28-62.86-108-65.53-111a5.91,5.91,0,0,0-8.49,0c-2.67,3-65.53,73.76-65.53,111a69.38,69.38,0,0,0,6.44,29.21S148.66,180.37,152.35,186.13ZM209.62,47.77C229.15,70.52,268,121,268,146.28a58.36,58.36,0,1,1-116.71,0C151.27,121,190.09,70.52,209.62,47.77Z"></path><path fill="#0055b8" d="M317.59,185.78a210,210,0,0,0-33.81-37,73.91,73.91,0,0,1-1.61,13A192.69,192.69,0,0,1,308.8,192c16,22.87,20.61,43.82,12.75,57.5s-28.26,20.11-56,17.65c-28-2.47-60.39-13.38-91.86-30.83a24.85,24.85,0,0,0,1.12-7.37,24.53,24.53,0,0,0-40.61-18.65c-17.88-14-32.83-29.19-43.56-44.57-16-22.86-20.62-43.82-12.75-57.49,3.48-6,9.42-10.68,17.36-13.76a34.94,34.94,0,0,0-13-5.58,40,40,0,0,0-13.63,14c-10.18,17.71-5.47,42.24,13.26,69.07,11.37,16.29,27.14,32.36,46,47a24.67,24.67,0,0,0,22.45,34.65,24.42,24.42,0,0,0,18-7.95c32.82,18.23,66.82,29.63,96.3,32.24q6.41.57,12.33.57c26.12,0,45-8.19,53.86-23.57C341,237.13,336.32,212.61,317.59,185.78Zm-153,43.14c0,.38,0,.75-.06,1.12a14.32,14.32,0,0,1-5.49,10.21h0a15.34,15.34,0,0,1-2.91,1.76.15.15,0,0,0-.07,0c-.25.11-.51.21-.78.31l-.45.16c-.22.08-.45.15-.68.21l-.63.16c-.2.05-.4.1-.6.13s-.54.09-.81.13-.32,0-.49.06c-.44,0-.89.07-1.34.07h0a14.3,14.3,0,0,1-12.59-7.52,14.39,14.39,0,0,1-1.73-6.85c0-.41,0-.81.06-1.21l.06-.51c0-.16,0-.32.07-.48q.11-.69.27-1.35h0a14.36,14.36,0,0,1,6.36-8.68h0a14.44,14.44,0,0,1,2.43-1.2l.36-.13.68-.23c.34-.1.68-.19,1-.26l.42-.08.89-.14.4,0c.42,0,.85-.07,1.29-.07a14.24,14.24,0,0,1,9.1,3.29,13.75,13.75,0,0,1,1.94,2,14.33,14.33,0,0,1,3.27,9.14Z"></path><path fill="#0055b8" d="M154.69,93.76q3-4.87,6.13-9.66a184.48,184.48,0,0,0-26-4.29c-1.78-.16-3.52-.28-5.24-.37A26.13,26.13,0,0,0,124,90.05c3.19,0,6.48.19,9.9.49A171.63,171.63,0,0,1,154.69,93.76Z"></path><path fill="#0055b8" d="M115.78,107.64a4.35,4.35,0,0,1-4.87-2.12L110,104A39.65,39.65,0,0,0,74.4,83.44a4.39,4.39,0,0,1-2.17-8.25l3.07-1.66A36.36,36.36,0,0,0,94.17,38.8a4.39,4.39,0,0,1,3.3-4.6l.08,0a4.38,4.38,0,0,1,5,2.66l1.74,4.4a28.66,28.66,0,0,0,33.56,17.29,4.39,4.39,0,0,1,2.7,8.33l-3,1.21A30.81,30.81,0,0,0,119,102.54a4.39,4.39,0,0,1-2.78,5A3.81,3.81,0,0,1,115.78,107.64ZM87,76.09a48.24,48.24,0,0,1,23.29,13.56,39.7,39.7,0,0,1,12.4-22.42A37.65,37.65,0,0,1,101.39,53.6,45.21,45.21,0,0,1,87,76.09Z"></path><path fill="#0055b8" d="M170.92,169.53l0,0a4.19,4.19,0,0,0,4.62-7l-.08.06a16.78,16.78,0,0,1-4.86-23.17l0,0a4.19,4.19,0,1,0-7-4.65A25.18,25.18,0,0,0,170.92,169.53Z"></path></g></svg>